<?xml version="1.0" encoding="UTF-8"?>
<!DOCTYPE svg PUBLIC "-//W3C//DTD SVG 1.1//EN" "http://www.w3.org/Graphics/SVG/1.1/DTD/svg11.dtd">
<!-- Creator: CorelDRAW X8 -->
<svg xmlns="http://www.w3.org/2000/svg" xml:space="preserve" width="33.5032mm" height="33.5031mm" version="1.1" style="shape-rendering:geometricPrecision; text-rendering:geometricPrecision; image-rendering:optimizeQuality; fill-rule:evenodd; clip-rule:evenodd"
viewBox="0 0 158 158"
 xmlns:xlink="http://www.w3.org/1999/xlink">
 <defs>
  <style type="text/css">
   <![CDATA[
    .str0 {stroke:#2B2A29;stroke-width:5.66622}
    .fil0 {fill:none}
    .fil1 {fill:black}
   ]]>
  </style>
 </defs>
 <g id="Layer_x0020_1">
  <metadata id="CorelCorpID_0Corel-Layer"/>
  <g>
   <path class="fil0 str0" d="M79 3c42,0 76,34 76,76 0,42 -34,76 -76,76 -42,0 -76,-34 -76,-76 0,-42 34,-76 76,-76z"/>
  </g>
  <g>
   <g id="_821701104">
    <path class="fil1" d="M37 78c1,0 2,-1 2,-2 0,-10 9,-19 19,-19l42 0 0 16 24 -17 -24 -18 0 16 -42 0c-12,0 -22,10 -22,22 0,1 1,2 1,2z"/>
    <path class="fil1" d="M121 80c-1,0 -2,1 -2,2 0,10 -9,19 -19,19l-42 0 0 -16 -23 18 23 17 0 -16 42 0c12,0 22,-10 22,-22 0,-1 0,-2 -1,-2z"/>
   </g>
   <g id="_821702992">
   </g>
   <g id="_821703120">
   </g>
   <g id="_821705488">
   </g>
   <g id="_821702096">
   </g>
   <g id="_821706960">
   </g>
   <g id="_821702288">
   </g>
   <g id="_821701584">
   </g>
   <g id="_821704400">
   </g>
   <g id="_821704784">
   </g>
   <g id="_821706832">
   </g>
   <g id="_821706544">
   </g>
   <g id="_821702544">
   </g>
   <g id="_821706000">
   </g>
   <g id="_821704560">
   </g>
   <g id="_821704752">
   </g>
  </g>
 </g>
</svg>
