<?xml version="1.0" encoding="UTF-8"?>
<!DOCTYPE svg PUBLIC "-//W3C//DTD SVG 1.1//EN" "http://www.w3.org/Graphics/SVG/1.1/DTD/svg11.dtd">
<!-- Creator: CorelDRAW X8 -->
<svg xmlns="http://www.w3.org/2000/svg" xml:space="preserve" width="4.946mm" height="6.9769mm" version="1.1" style="shape-rendering:geometricPrecision; text-rendering:geometricPrecision; image-rendering:optimizeQuality; fill-rule:evenodd; clip-rule:evenodd"
viewBox="0 0 163 230"
 xmlns:xlink="http://www.w3.org/1999/xlink">
 <defs>
  <style type="text/css">
   <![CDATA[
    .fil0 {fill:#6F6D72}
   ]]>
  </style>
 </defs>
 <g id="Layer_x0020_1">
  <metadata id="CorelCorpID_0Corel-Layer"/>
  <path class="fil0" d="M130 115c-1,1 -46,36 -54,43l-74 58c-6,7 2,16 14,14 5,-1 32,-23 38,-28 13,-9 25,-19 37,-28 22,-16 43,-33 65,-50 10,-7 10,-11 0,-18l-120 -92c-4,-3 -15,-12 -20,-13 -11,-3 -20,6 -14,13 1,2 15,12 18,15l110 86z"/>
 </g>
</svg>
