<?xml version="1.0" encoding="UTF-8"?>
<!DOCTYPE svg PUBLIC "-//W3C//DTD SVG 1.1//EN" "http://www.w3.org/Graphics/SVG/1.1/DTD/svg11.dtd">
<!-- Creator: CorelDRAW X8 -->
<svg xmlns="http://www.w3.org/2000/svg" xml:space="preserve" width="20.2507mm" height="20.3732mm" version="1.1" style="shape-rendering:geometricPrecision; text-rendering:geometricPrecision; image-rendering:optimizeQuality; fill-rule:evenodd; clip-rule:evenodd"
viewBox="0 0 597 601"
 xmlns:xlink="http://www.w3.org/1999/xlink">
 <defs>
  <style type="text/css">
   <![CDATA[
    .fil0 {fill:#fff}
   ]]>
  </style>
 </defs>
 <g id="Layer_x0020_1">
  <metadata id="CorelCorpID_0Corel-Layer"/>
  <path class="fil0" d="M144 196c-31,-2 -65,-1 -96,-1 -54,0 -54,-8 -41,43l77 312c7,28 19,47 49,50 23,2 254,0 289,0 91,0 83,-12 103,-93 9,-36 77,-294 72,-310 -14,-3 -120,-3 -141,-1 -1,19 6,81 -51,80 -57,0 -49,-62 -51,-81l-108 1c-1,17 7,81 -51,80 -58,0 -49,-64 -51,-80z"/>
  <path class="fil0" d="M286 52c53,-12 93,31 94,80 1,52 -11,110 17,118 46,14 33,-61 33,-95 0,-31 1,-53 -11,-79 -45,-93 -170,-101 -226,-21 -30,44 -23,95 -23,155 0,16 -1,28 9,36 8,7 24,7 32,0 15,-10 9,-59 9,-81 0,-45 -2,-99 66,-113z"/>
 </g>
</svg>
