<?xml version="1.0" encoding="UTF-8"?>
<!DOCTYPE svg PUBLIC "-//W3C//DTD SVG 1.1//EN" "http://www.w3.org/Graphics/SVG/1.1/DTD/svg11.dtd">
<!-- Creator: CorelDRAW X8 -->
<svg xmlns="http://www.w3.org/2000/svg" xml:space="preserve" width="33.5032mm" height="33.5031mm" version="1.1" style="shape-rendering:geometricPrecision; text-rendering:geometricPrecision; image-rendering:optimizeQuality; fill-rule:evenodd; clip-rule:evenodd"
viewBox="0 0 142 142"
 xmlns:xlink="http://www.w3.org/1999/xlink">
 <defs>
  <style type="text/css">
   <![CDATA[
    .str0 {stroke:#2B2A29;stroke-width:5.09832}
    .fil0 {fill:none}
    .fil1 {fill:black}
   ]]>
  </style>
 </defs>
 <g id="Layer_x0020_1">
  <metadata id="CorelCorpID_0Corel-Layer"/>
  <g>
   <path class="fil0 str0" d="M71 3c38,0 69,30 69,68 0,38 -31,69 -69,69 -38,0 -68,-31 -68,-69 0,-38 30,-68 68,-68z"/>
  </g>
  <g>
   <g id="_607359440">
    <path class="fil1" d="M102 102l-61 0c-5,0 -9,-4 -9,-9l0 -37c0,-5 4,-9 9,-9l12 0 1 -4c1,-2 3,-3 5,-3l25 0c2,0 4,1 4,3l0 1 1 3 13 0c5,0 9,4 9,9l0 37c0,5 -4,9 -9,9zm-61 -52c-4,0 -6,3 -6,6l0 37c0,4 2,6 6,6l61 0c3,0 6,-2 6,-6l0 -37c0,-3 -3,-6 -6,-6l-15 0 -2 -6c0,0 -1,-1 -1,-1l-25 0c-1,0 -2,0 -2,1l-2 6 -14 0zm30 43c-10,0 -19,-8 -19,-19 0,-11 9,-19 19,-19 11,0 19,8 19,19 0,11 -8,19 -19,19zm0 -35c-9,0 -16,7 -16,16 0,9 7,16 16,16 9,0 16,-7 16,-16 0,-9 -7,-16 -16,-16zm29 -2c-2,0 -3,1 -3,3 0,1 1,2 3,2 1,0 2,-1 2,-2 0,-2 -1,-3 -2,-3z"/>
   </g>
   <g id="_606437984">
   </g>
   <g id="_610828752">
   </g>
   <g id="_610829424">
   </g>
   <g id="_610829168">
   </g>
   <g id="_820016864">
   </g>
   <g id="_820018880">
   </g>
   <g id="_820029504">
   </g>
   <g id="_820019968">
   </g>
   <g id="_820029760">
   </g>
   <g id="_820020224">
   </g>
   <g id="_820024512">
   </g>
   <g id="_820021504">
   </g>
   <g id="_820023488">
   </g>
   <g id="_820020160">
   </g>
   <g id="_820021248">
   </g>
  </g>
 </g>
</svg>
