<?xml version="1.0" encoding="UTF-8"?>
<!DOCTYPE svg PUBLIC "-//W3C//DTD SVG 1.1//EN" "http://www.w3.org/Graphics/SVG/1.1/DTD/svg11.dtd">
<!-- Creator: CorelDRAW X8 -->
<svg xmlns="http://www.w3.org/2000/svg" xml:space="preserve" width="32.3032mm" height="32.3031mm" version="1.1" style="shape-rendering:geometricPrecision; text-rendering:geometricPrecision; image-rendering:optimizeQuality; fill-rule:evenodd; clip-rule:evenodd"
viewBox="0 0 222 222"
 xmlns:xlink="http://www.w3.org/1999/xlink">
 <defs>
  <style type="text/css">
   <![CDATA[
    .fil0 {fill:#B2B3B3}
   ]]>
  </style>
 </defs>
 <g id="Layer_x0020_1">
  <metadata id="CorelCorpID_0Corel-Layer"/>
  <path class="fil0" d="M111 0c-61,0 -111,50 -111,111 0,62 50,111 111,111 62,0 111,-49 111,-111 0,-61 -49,-111 -111,-111zm28 115l-18 0c0,29 0,65 0,65l-27 0c0,0 0,-36 0,-65l-13 0 0 -23 13 0 0 -14c0,-11 5,-27 27,-27l20 0 0 22c0,0 -12,0 -14,0 -3,0 -6,1 -6,6l0 13 20 0 -2 23z"/>
 </g>
</svg>
