<?xml version="1.0" encoding="UTF-8"?>
<!DOCTYPE svg PUBLIC "-//W3C//DTD SVG 1.1//EN" "http://www.w3.org/Graphics/SVG/1.1/DTD/svg11.dtd">
<!-- Creator: CorelDRAW X8 -->
<svg xmlns="http://www.w3.org/2000/svg" xml:space="preserve" width="21.4049mm" height="19.6235mm" version="1.1" style="shape-rendering:geometricPrecision; text-rendering:geometricPrecision; image-rendering:optimizeQuality; fill-rule:evenodd; clip-rule:evenodd"
viewBox="0 0 313 287"
 xmlns:xlink="http://www.w3.org/1999/xlink">
 <defs>
  <style type="text/css">
   <![CDATA[
    .fil0 {fill:#fff}
   ]]>
  </style>
 </defs>
 <g id="Layer_x0020_1">
  <metadata id="CorelCorpID_0Corel-Layer"/>
  <path class="fil0" d="M306 121c19,-50 -4,-91 -35,-110 -28,-16 -64,-14 -93,3 -5,3 -8,5 -12,9 -3,3 -6,7 -11,9 -8,-12 -28,-25 -48,-30 -23,-5 -48,0 -66,10 -30,17 -53,60 -35,109 19,49 80,101 121,137 3,3 7,7 10,10 6,6 13,12 19,19 46,-43 130,-111 150,-166z"/>
 </g>
</svg>
