<?xml version="1.0" encoding="UTF-8"?>
<!DOCTYPE svg PUBLIC "-//W3C//DTD SVG 1.1//EN" "http://www.w3.org/Graphics/SVG/1.1/DTD/svg11.dtd">
<!-- Creator: CorelDRAW X8 -->
<svg xmlns="http://www.w3.org/2000/svg" xml:space="preserve" width="46.9068mm" height="43.4303mm" version="1.1" style="shape-rendering:geometricPrecision; text-rendering:geometricPrecision; image-rendering:optimizeQuality; fill-rule:evenodd; clip-rule:evenodd"
viewBox="0 0 2147 1988"
 xmlns:xlink="http://www.w3.org/1999/xlink">
 <defs>
  <style type="text/css">
   <![CDATA[
    .fil0 {fill:#727271}
   ]]>
  </style>
 </defs>
 <g id="Layer_x0020_1">
  <metadata id="CorelCorpID_0Corel-Layer"/>
  <g id="_607365456">
   <g>
    <path class="fil0" d="M2143 593c-31,-344 -275,-593 -581,-593 -203,0 -390,109 -495,284 -103,-177 -282,-284 -482,-284 -306,0 -550,249 -581,593 -3,15 -13,95 18,225 44,188 147,358 297,494l748 676 761 -676c150,-136 252,-306 297,-494 31,-130 21,-210 18,-225zm-99 206c-40,172 -134,328 -272,452l-705 626 -692 -626c-138,-124 -232,-280 -273,-452 -29,-123 -17,-193 -17,-193l1 -4c26,-301 236,-520 499,-520 193,0 363,119 444,309l38 90 38 -90c80,-187 259,-309 457,-309 262,0 472,219 500,524 0,0 12,70 -18,193z"/>
   </g>
   <g>
   </g>
   <g>
   </g>
   <g>
   </g>
   <g>
   </g>
   <g>
   </g>
   <g>
   </g>
   <g>
   </g>
   <g>
   </g>
   <g>
   </g>
   <g>
   </g>
   <g>
   </g>
   <g>
   </g>
   <g>
   </g>
   <g>
   </g>
   <g>
   </g>
  </g>
 </g>
</svg>
