<?xml version="1.0" encoding="UTF-8"?>
<!DOCTYPE svg PUBLIC "-//W3C//DTD SVG 1.1//EN" "http://www.w3.org/Graphics/SVG/1.1/DTD/svg11.dtd">
<!-- Creator: CorelDRAW X8 -->
<svg xmlns="http://www.w3.org/2000/svg" xml:space="preserve" width="32.3032mm" height="32.3031mm" version="1.1" style="shape-rendering:geometricPrecision; text-rendering:geometricPrecision; image-rendering:optimizeQuality; fill-rule:evenodd; clip-rule:evenodd"
viewBox="0 0 318 318"
 xmlns:xlink="http://www.w3.org/1999/xlink">
 <defs>
  <style type="text/css">
   <![CDATA[
    .fil1 {fill:#FEFEFE}
    .fil0 {fill:#B2B3B3}
   ]]>
  </style>
 </defs>
 <g id="Layer_x0020_1">
  <metadata id="CorelCorpID_0Corel-Layer"/>
  <circle class="fil0" cx="159" cy="159" r="159"/>
  <g id="_607042064">
   <g>
    <g>
     <path class="fil1" d="M192 69l-67 0c-31,0 -56,25 -56,56l0 67c0,31 25,57 56,57l67 0c31,0 57,-26 57,-57l0 -67c0,-31 -26,-56 -57,-56zm40 123c0,22 -18,40 -40,40l-67 0c-21,0 -39,-18 -39,-40l0 -67c0,-21 18,-39 39,-39l67 0c22,0 40,18 40,39l0 67z"/>
    </g>
   </g>
   <g>
    <g>
     <path class="fil1" d="M159 114c-25,0 -45,20 -45,45 0,25 20,45 45,45 25,0 45,-20 45,-45 0,-25 -20,-45 -45,-45zm0 73c-16,0 -28,-13 -28,-28 0,-16 12,-28 28,-28 15,0 28,12 28,28 0,15 -13,28 -28,28z"/>
    </g>
   </g>
   <g>
    <g>
     <circle class="fil1" cx="207" cy="111" r="6"/>
    </g>
   </g>
   <g>
   </g>
   <g>
   </g>
   <g>
   </g>
   <g>
   </g>
   <g>
   </g>
   <g>
   </g>
   <g>
   </g>
   <g>
   </g>
   <g>
   </g>
   <g>
   </g>
   <g>
   </g>
   <g>
   </g>
   <g>
   </g>
   <g>
   </g>
   <g>
   </g>
  </g>
 </g>
</svg>
