<?xml version="1.0" encoding="UTF-8"?>
<!DOCTYPE svg PUBLIC "-//W3C//DTD SVG 1.1//EN" "http://www.w3.org/Graphics/SVG/1.1/DTD/svg11.dtd">
<!-- Creator: CorelDRAW X8 -->
<svg xmlns="http://www.w3.org/2000/svg" xml:space="preserve" width="32.3032mm" height="32.3031mm" version="1.1" style="shape-rendering:geometricPrecision; text-rendering:geometricPrecision; image-rendering:optimizeQuality; fill-rule:evenodd; clip-rule:evenodd"
viewBox="0 0 263 263"
 xmlns:xlink="http://www.w3.org/1999/xlink">
 <defs>
  <style type="text/css">
   <![CDATA[
    .fil1 {fill:#FEFEFE}
    .fil0 {fill:#B2B3B3}
   ]]>
  </style>
 </defs>
 <g id="Layer_x0020_1">
  <metadata id="CorelCorpID_0Corel-Layer"/>
  <circle class="fil0" cx="131" cy="131" r="131"/>
  <g id="_607357136">
   <g>
    <g>
     <path class="fil1" d="M131 55c-21,0 -38,17 -38,38 0,21 17,38 38,38 21,0 39,-17 39,-38 0,-21 -18,-38 -39,-38zm0 57c-10,0 -19,-8 -19,-19 0,-11 9,-19 19,-19 11,0 19,8 19,19 0,11 -8,19 -19,19z"/>
    </g>
   </g>
   <g>
    <g>
     <path class="fil1" d="M182 130c-4,-4 -10,-4 -13,0 -21,21 -54,21 -75,0 -4,-4 -10,-4 -14,0 -3,4 -3,10 0,14 12,12 27,18 43,20l-27 28c-4,3 -4,9 0,13 3,4 10,4 13,0l22 -22 22 22c2,2 5,3 7,3 2,0 5,-1 7,-3 4,-4 4,-10 0,-13l-28 -28c16,-2 31,-8 43,-20 4,-4 4,-10 0,-14z"/>
    </g>
   </g>
   <g>
   </g>
   <g>
   </g>
   <g>
   </g>
   <g>
   </g>
   <g>
   </g>
   <g>
   </g>
   <g>
   </g>
   <g>
   </g>
   <g>
   </g>
   <g>
   </g>
   <g>
   </g>
   <g>
   </g>
   <g>
   </g>
   <g>
   </g>
   <g>
   </g>
  </g>
 </g>
</svg>
