<?xml version="1.0" encoding="UTF-8"?>
<!DOCTYPE svg PUBLIC "-//W3C//DTD SVG 1.1//EN" "http://www.w3.org/Graphics/SVG/1.1/DTD/svg11.dtd">
<!-- Creator: CorelDRAW X8 -->
<svg xmlns="http://www.w3.org/2000/svg" xml:space="preserve" width="177.591mm" height="54.1082mm" version="1.1" style="shape-rendering:geometricPrecision; text-rendering:geometricPrecision; image-rendering:optimizeQuality; fill-rule:evenodd; clip-rule:evenodd"
viewBox="0 0 17753 5409"
 xmlns:xlink="http://www.w3.org/1999/xlink">
 <defs>
  <style type="text/css">
   <![CDATA[
    .fil0 {fill:#EBECEC}
    .fil1 {fill:#DFA31F;fill-rule:nonzero}
   ]]>
  </style>
 </defs>
 <g id="Layer_x0020_1">
  <metadata id="CorelCorpID_0Corel-Layer"/>
  <g id="_659959344">
   <path class="fil0" d="M10332 3322c-177,-32 -377,-115 -511,-212 -120,-88 -259,-257 -313,-381 -69,-157 -101,-317 -101,-501 0,-638 357,-1065 967,-1159 123,-18 372,-18 500,1 294,45 557,185 718,386 155,192 225,413 225,705 0,165 -17,281 -59,415 -125,395 -452,673 -881,748 -113,19 -430,18 -545,-2l0 0zm435 -164c106,-22 225,-84 307,-159 212,-195 322,-556 289,-939 -28,-319 -108,-518 -271,-671 -138,-132 -384,-194 -608,-154 -311,54 -523,301 -605,709 -68,333 10,739 184,968 99,131 260,227 430,255 61,10 206,6 274,-9l0 0zm-4906 143c-100,-129 -1468,-1496 -1511,-1511 -23,-8 1,1180 29,1454l6 64 -281 0 0 -33c0,-18 7,-146 16,-282 10,-180 15,-477 15,-1077l0 -830 153 0 91 101c143,156 408,434 606,633 322,322 715,707 772,753l55 47 -6 -326c-18,-815 -28,-1177 -33,-1193 -6,-13 11,-15 135,-15l143 0 -8 148c-3,80 -9,585 -13,1121l-6 974 -71 0c-64,0 -71,-2 -92,-28zm-5861 -1104l0 -1111 466 0c392,0 477,3 540,16 307,70 481,301 459,611 -17,232 -141,420 -342,519 -151,75 -228,88 -479,89l-219 0 4 36c2,20 7,225 10,455 3,231 10,436 13,458l6 38 -458 0 0 -1111zm749 -56c82,-29 139,-70 192,-141 67,-89 97,-187 98,-320 0,-192 -71,-327 -210,-395 -53,-26 -72,-29 -186,-33 -70,-1 -148,0 -174,4l-45 6 0 444c0,413 1,443 18,448 10,3 71,5 135,6 90,1 129,-3 172,-19l0 0zm750 1157c0,-6 11,-33 25,-60 13,-27 60,-128 102,-224 44,-97 112,-250 152,-341 156,-345 165,-367 331,-740 166,-376 351,-837 351,-874 0,-3 50,-3 110,-2l110 3 67 181c123,334 273,701 438,1075 16,37 93,212 171,388 77,176 161,364 185,418 23,54 53,118 66,143l22 43 -503 0 -70 -188c-39,-104 -99,-262 -135,-351l-63 -164 -399 0c-372,0 -400,1 -405,19 -3,9 -29,75 -58,146 -61,150 -159,418 -179,490l-12 48 -153 0c-98,0 -153,-4 -153,-10zm1231 -897l28 -8 -57 -149c-31,-83 -74,-197 -97,-254 -22,-57 -63,-163 -90,-235 -48,-129 -51,-132 -63,-104 -7,16 -43,101 -81,189 -36,88 -81,198 -101,243 -83,197 -127,310 -123,316 16,15 526,16 584,2l0 0zm4106 430c4,-264 6,-764 4,-1112l-5 -633 521 0c402,0 547,3 638,15 307,41 523,150 693,352 151,180 224,405 224,686 -1,497 -207,858 -599,1050 -82,42 -159,69 -285,100 -37,9 -216,13 -625,16l-574 4 8 -478zm1043 273c106,-32 209,-92 295,-172 197,-184 285,-428 285,-787 -2,-563 -319,-884 -875,-884 -53,0 -145,4 -205,7l-109 7 -7 94c-14,194 -7,1727 8,1744 2,1 67,5 146,9 220,13 381,5 462,-18zm4522 -36c10,-304 10,-1927 0,-1959l-7 -23 500 0c560,0 607,4 737,66 87,41 182,129 223,209 56,104 73,252 45,387 -42,202 -189,350 -427,430 -53,18 -98,35 -101,38 -4,4 76,123 288,423 89,127 320,436 419,561l81 103 -269 3c-148,1 -275,0 -282,-2 -6,-2 -38,-48 -72,-103 -129,-211 -426,-649 -623,-923 -12,-17 -28,-23 -54,-24 -34,0 -36,2 -34,29 2,15 5,252 8,527l4 498 -444 0 8 -240 0 0zm755 -973c133,-28 226,-104 286,-232 29,-62 33,-81 36,-184 6,-175 -31,-273 -129,-345 -93,-69 -208,-91 -409,-78l-121 8 0 834 65 4c140,7 212,6 272,-7l0 0zm1269 1180c8,-18 51,-112 94,-210 44,-96 93,-205 109,-243 15,-37 44,-102 65,-144 33,-74 71,-156 162,-362 22,-49 52,-116 67,-150 25,-55 55,-123 171,-388 90,-205 195,-463 246,-604l41 -114 109 -3 108 -3 18 54c20,59 69,194 151,402 46,121 75,192 169,418 59,143 180,424 223,517 10,23 43,99 75,171 109,246 172,388 239,536 37,82 68,150 68,152 0,2 -111,4 -247,4l-247 0 -41 -105c-23,-59 -61,-157 -85,-220 -24,-62 -67,-173 -96,-246l-52 -132 -398 2 -397 4 -75 187c-42,103 -100,259 -131,349l-54 161 -306 0 14 -33zm1214 -872c17,-3 33,-6 33,-9 0,-7 -249,-663 -280,-738l-15 -35 -40 97c-22,53 -55,134 -75,179 -18,46 -71,175 -117,288 -48,112 -82,207 -78,212 16,15 483,20 572,6l0 0zm-5290 -1478c-22,-70 -21,-75 8,-81 59,-14 361,-19 450,-7 51,6 93,12 95,14 2,2 -4,26 -12,55l-17 50 -515 0 -9 -31 0 0zm-32 -172c-46,-50 -9,-132 58,-132 63,0 98,78 60,132 -22,32 -88,32 -118,0zm477 -4c-29,-36 -27,-67 4,-102 33,-35 79,-36 113,-1 51,51 17,130 -56,130 -32,0 -45,-7 -61,-27zm-213 4c-53,-28 -62,-87 -21,-127 31,-32 68,-33 104,-2 38,33 38,85 -1,119 -30,24 -51,27 -82,10l0 0zm-372 -290c-109,-355 -130,-424 -128,-427 5,-5 339,498 339,509 0,6 -32,13 -71,18 -39,3 -79,9 -88,12 -12,4 -23,-19 -52,-112zm723 105c-23,-4 -59,-8 -80,-8 -20,-2 -40,-5 -43,-10 -2,-4 23,-49 57,-100 34,-52 108,-164 166,-251 57,-87 106,-156 108,-154 4,4 -15,70 -94,333 -20,63 -41,133 -47,158 -6,24 -14,42 -18,42 -5,-1 -26,-5 -49,-10l0 0zm-408 -37c2,-49 91,-544 96,-531 5,14 90,524 90,542 0,3 -42,6 -93,6 -82,0 -93,-2 -93,-17z"/>
   <path class="fil1" d="M14912 3660c-110,151 -228,288 -355,413 -127,124 -256,241 -387,349 -62,50 -125,98 -191,144 -65,46 -129,91 -190,134 -32,65 -62,128 -90,188 -27,60 -50,117 -68,170 -39,103 -45,179 -18,227 28,47 75,65 141,54 44,-8 95,-31 155,-69 80,-54 159,-120 237,-199 78,-79 151,-169 220,-268 11,-14 20,-17 26,-12 5,6 3,16 -9,29 -80,111 -156,202 -228,273 -73,72 -137,130 -195,174 -41,33 -93,64 -158,94 -64,30 -121,46 -171,48 -106,3 -162,-30 -169,-99 -7,-69 16,-163 69,-282 48,-103 100,-207 155,-315 55,-107 108,-208 159,-303 52,-95 101,-182 146,-260 46,-78 84,-140 114,-187 25,-41 50,-79 74,-115 24,-35 48,-70 74,-104 52,-74 105,-135 158,-183 66,-62 142,-107 226,-133 85,-27 164,-38 238,-32 68,3 106,29 113,77 7,48 -18,111 -76,187zm-82 49c30,-44 42,-85 38,-122 -5,-36 -27,-66 -66,-89 -52,-32 -111,-41 -177,-27 -65,14 -124,48 -177,101 -43,42 -84,92 -122,150 -37,59 -76,122 -115,191 -62,107 -126,225 -194,354 -67,129 -134,256 -201,380l-10 19c59,-40 119,-83 179,-126 59,-44 116,-88 171,-133 35,-29 82,-70 143,-125 61,-54 124,-114 189,-178 65,-64 129,-131 191,-201 62,-69 112,-134 151,-194zm381 901c-48,48 -108,99 -182,155 -73,55 -140,98 -199,127 -78,41 -139,54 -182,39 -14,28 -28,56 -43,83 -15,28 -32,54 -50,78 -53,76 -105,133 -158,171 -53,38 -99,56 -138,54 -39,-5 -65,-28 -79,-70 -13,-42 -8,-104 18,-184 13,-43 35,-90 63,-140 29,-50 62,-99 100,-147 38,-48 78,-92 120,-133 42,-41 83,-73 122,-96 34,-20 64,-32 89,-36 5,-6 9,-10 12,-13 4,-3 7,-5 9,-8 12,-7 24,-12 36,-17 13,-5 27,-9 43,-15 12,-2 17,2 17,11 3,7 0,20 -7,39 -13,39 -27,79 -41,119 -14,41 -25,77 -34,111 -12,55 -5,93 19,114 24,21 62,18 115,-7 53,-26 112,-63 177,-111 65,-48 118,-96 160,-142 11,-13 19,-16 22,-7 3,8 1,17 -9,25zm-529 -53c-11,-14 -27,-14 -48,-1 -21,12 -43,32 -67,60 -24,27 -49,60 -76,99 -26,39 -49,79 -70,119 -28,53 -52,106 -72,159 -21,53 -36,98 -45,134 -18,83 -8,128 29,134 38,5 87,-33 146,-114 53,-69 99,-147 138,-234 -28,-34 -26,-86 3,-156 12,-27 23,-59 35,-95 11,-37 20,-71 27,-105zm1309 -87c-48,48 -108,100 -182,155 -73,56 -139,98 -199,127 -78,41 -139,54 -182,39 -14,28 -28,56 -43,84 -15,28 -32,53 -50,77 -53,76 -105,133 -158,171 -53,38 -99,56 -137,54 -39,-4 -66,-28 -79,-70 -14,-42 -9,-103 17,-183 13,-44 35,-91 63,-141 29,-50 62,-98 100,-146 38,-48 78,-93 120,-134 43,-40 83,-72 122,-95 35,-20 64,-33 90,-37 4,-5 8,-10 12,-12 3,-3 6,-6 8,-9 12,-7 24,-12 36,-17 13,-4 27,-9 43,-14 12,-2 17,1 17,10 3,7 0,20 -6,39 -14,40 -28,79 -42,120 -13,40 -25,77 -34,110 -12,55 -5,93 19,114 24,21 62,19 115,-7 53,-25 112,-62 177,-111 65,-48 119,-95 160,-142 11,-13 19,-16 22,-7 4,8 1,17 -9,25zm-529 -53c-11,-13 -27,-14 -48,-1 -20,13 -43,33 -67,60 -24,27 -49,60 -75,99 -27,39 -50,79 -71,120 -27,53 -51,106 -72,158 -21,53 -36,98 -45,134 -18,83 -8,128 29,134 38,6 87,-32 146,-114 53,-69 99,-147 138,-234 -28,-34 -26,-86 3,-155 12,-28 23,-60 35,-96 11,-36 20,-71 27,-105zm2286 -2069c11,12 4,22 -21,32 -23,6 -52,15 -86,27 -34,12 -69,27 -103,44 -66,30 -132,70 -198,118 -65,48 -131,108 -197,180 -76,80 -151,169 -227,267 -76,99 -150,203 -223,313 -74,111 -146,224 -217,340 -71,116 -139,230 -203,342 -46,82 -94,167 -144,256 -50,89 -100,181 -148,274 32,-13 64,-25 95,-37 31,-13 59,-27 84,-43 59,-34 104,-76 132,-129 29,-52 37,-103 26,-154 -2,-13 -2,-22 2,-26 3,-4 9,-7 19,-8 11,-2 25,-4 41,-6 16,-2 30,-4 41,-6 14,-2 23,9 28,33 6,49 -4,97 -31,143 -28,46 -67,84 -117,114 -48,27 -103,55 -165,84 -62,30 -116,54 -162,74 -2,3 -8,5 -17,7l-7 15c3,1 4,3 5,6 2,2 4,5 9,8 44,43 87,80 131,113 43,32 84,60 123,82 60,35 125,50 196,44 71,-6 133,-35 186,-88 41,-42 86,-97 136,-165 49,-69 89,-135 122,-201 6,-12 14,-18 24,-16 9,2 9,10 0,26 -21,38 -47,80 -78,127 -31,47 -64,94 -101,142 -37,48 -75,94 -114,139 -38,45 -75,84 -110,117 -36,37 -77,56 -123,57 -46,1 -87,-6 -124,-23 -32,-12 -65,-32 -98,-59 -33,-28 -68,-60 -105,-97 -18,-17 -35,-35 -51,-54 -16,-19 -33,-36 -52,-51l-20 -20c-30,55 -58,110 -85,162 -26,53 -52,105 -77,155 -23,48 -47,61 -72,41 -16,-14 -16,-33 0,-59 27,-55 57,-111 89,-169 32,-57 64,-115 96,-173l45 -77c60,-102 118,-203 175,-303 58,-100 114,-194 169,-284 66,-111 135,-223 206,-338 71,-115 143,-227 217,-338 73,-110 147,-217 223,-320 75,-103 151,-198 227,-284 91,-106 181,-197 269,-272 89,-76 176,-128 263,-157 28,-7 47,-3 59,13 7,11 14,22 20,34 7,13 13,22 18,28z"/>
  </g>
 </g>
</svg>
