<?xml version="1.0" encoding="UTF-8"?>
<!DOCTYPE svg PUBLIC "-//W3C//DTD SVG 1.1//EN" "http://www.w3.org/Graphics/SVG/1.1/DTD/svg11.dtd">
<!-- Creator: CorelDRAW X8 -->
<svg xmlns="http://www.w3.org/2000/svg" xml:space="preserve" width="33.5032mm" height="33.5031mm" version="1.1" style="shape-rendering:geometricPrecision; text-rendering:geometricPrecision; image-rendering:optimizeQuality; fill-rule:evenodd; clip-rule:evenodd"
viewBox="0 0 118 118"
 xmlns:xlink="http://www.w3.org/1999/xlink">
 <defs>
  <style type="text/css">
   <![CDATA[
    .str0 {stroke:#2B2A29;stroke-width:4.2292}
    .fil0 {fill:none}
    .fil1 {fill:black}
   ]]>
  </style>
 </defs>
 <g id="Layer_x0020_1">
  <metadata id="CorelCorpID_0Corel-Layer"/>
  <g>
   <path class="fil0 str0" d="M59 2c31,0 57,26 57,57 0,31 -26,57 -57,57 -31,0 -57,-26 -57,-57 0,-31 26,-57 57,-57z"/>
  </g>
  <g>
   <path class="fil1" d="M84 61l0 3 -3 0c0,-1 1,-3 3,-3zm-44 0c1,0 3,2 3,3l-3 0 0 -3zm25 -14c3,1 6,9 0,12 -2,1 -5,1 -7,-1 -2,-1 -3,-4 -3,-6 1,0 4,2 6,2 1,0 1,0 2,0l0 1c-1,1 -2,1 -2,0 -2,-1 -4,1 -1,3 1,0 0,1 1,1 0,1 1,1 1,0 1,0 1,-1 2,-1 2,-1 2,-5 0,-6 1,-2 1,-3 1,-5zm0 0l0 0zm-38 -20l6 0 0 20 -6 0 0 -20zm54 15l3 0 0 3c-1,0 -2,-1 -2,-1 -1,0 -1,-1 -1,-2zm-23 0l20 0c0,1 0,1 0,2 1,2 3,3 5,4 0,0 1,0 1,0l0 10c0,0 -1,0 -1,1 -3,0 -4,2 -5,4 0,1 0,1 -1,1l-31 0c-1,0 0,-3 -4,-5 0,0 -1,0 -1,0 -1,-1 -1,-1 -1,-1l0 -11c1,0 3,0 3,0 3,1 4,1 7,2l3 2c-1,0 -1,2 -1,2 0,4 3,7 5,9 3,1 6,1 9,0 7,-4 7,-14 0,-17 -2,-1 -3,-1 -5,-1 -1,0 -1,0 -2,-1 0,0 -1,0 -1,-1l0 0zm-3 0c0,2 1,3 3,4 2,1 4,2 4,3 0,2 -1,2 -2,2 -1,-1 -2,-1 -3,-2 -3,-1 -11,-4 -12,-4 -4,-1 -5,-1 -9,-1l0 -14c3,0 21,0 23,0 2,1 2,0 3,1 1,0 2,1 3,1l11 7c1,0 1,0 2,0l-19 0c-2,0 -2,0 -3,1 -1,0 -1,1 -1,2zm-30 -16l0 23c0,0 0,1 1,1l9 0c0,0 1,-1 1,-1l0 -3 1 0 0 20c0,0 1,1 1,1l47 0c1,0 1,-1 1,-1l0 -26c0,0 0,0 0,0 -1,-1 -2,0 -3,-1l-12 -7c-1,0 -1,0 -2,0 -4,-2 -7,-5 -12,-5l-21 0 0 -1c0,-1 -1,-1 -1,-1l-9 0c-1,0 -1,0 -1,1z"/>
   <path class="fil1" d="M85 71l6 0 0 20 -6 0 0 -20zm-29 10c-2,0 -2,-3 -1,-4l10 -4c2,-1 4,-1 6,-1 2,0 6,2 9,2 0,1 1,1 2,1l0 11c-2,0 -11,1 -13,2 -5,1 -9,1 -14,2 -3,1 -4,0 -6,-1l-8 -4c-1,-1 -5,-3 -6,-4 -1,-2 0,-4 2,-4 1,0 2,0 2,1l9 4c1,1 1,1 2,1 1,1 3,1 4,1 1,0 1,0 2,0 2,0 7,-2 9,-3 1,0 1,0 2,0 1,-1 1,-3 -1,-3 -1,0 -9,3 -10,3zm26 -9l-5 -2c-8,-2 -11,0 -18,3 -2,1 -5,2 -7,3 -1,2 0,4 0,5 -2,0 -9,-4 -11,-5 -2,-1 -4,-3 -7,-1 -3,2 -3,6 -1,8 1,1 11,6 14,8 4,2 6,2 10,2l23 -4c1,0 2,0 2,-1 0,1 0,2 0,3 0,1 0,1 0,2 0,0 1,0 1,0l9 0c1,0 1,0 1,-1l0 -23c0,0 0,-1 -1,-1l-9 0c0,0 -1,1 -1,2 0,1 0,2 0,2z"/>
   <path class="fil1" d="M45 35l11 0c1,0 1,-2 0,-2l-11 0c-1,0 -1,2 0,2z"/>
   <path class="fil1" d="M73 53c0,2 2,1 4,1 2,0 2,-2 0,-2 -2,0 -4,-1 -4,1z"/>
   <path class="fil1" d="M46 54c2,0 5,1 5,-1 0,-2 -3,-1 -5,-1 0,0 -1,0 -1,1 0,1 0,1 1,1z"/>
   <path class="fil1" d="M29 44c0,2 3,2 3,0 0,-2 -3,-2 -3,0z"/>
   <path class="fil1" d="M86 74c0,3 3,2 3,1 0,-3 -3,-2 -3,-1z"/>
   <path class="fil1" d="M39 34c0,0 0,1 1,1 0,0 0,0 1,0 1,0 1,-2 -1,-2 0,0 -1,1 -1,1z"/>
  </g>
 </g>
</svg>
