<?xml version="1.0" encoding="UTF-8"?>
<!DOCTYPE svg PUBLIC "-//W3C//DTD SVG 1.1//EN" "http://www.w3.org/Graphics/SVG/1.1/DTD/svg11.dtd">
<!-- Creator: CorelDRAW X8 -->
<svg xmlns="http://www.w3.org/2000/svg" xml:space="preserve" width="30.5682mm" height="30.6126mm" version="1.1" style="shape-rendering:geometricPrecision; text-rendering:geometricPrecision; image-rendering:optimizeQuality; fill-rule:evenodd; clip-rule:evenodd"
viewBox="0 0 392 393"
 xmlns:xlink="http://www.w3.org/1999/xlink">
 <defs>
  <style type="text/css">
   <![CDATA[
    .fil0 {fill:#C5C6C6}
   ]]>
  </style>
 </defs>
 <g id="Layer_x0020_1">
  <metadata id="CorelCorpID_0Corel-Layer"/>
  <g id="_605648128">
   <g>
    <g>
     <path class="fil0" d="M310 243c-8,-8 -18,-12 -28,-12 -10,0 -20,4 -28,12l-26 26c-3,-1 -5,-2 -7,-3 -3,-1 -6,-3 -8,-4 -24,-16 -47,-36 -68,-62 -11,-14 -18,-25 -23,-36 7,-6 14,-12 20,-19 2,-2 4,-4 7,-7 17,-17 17,-40 0,-57l-23 -23c-3,-2 -5,-5 -8,-8 -5,-5 -10,-10 -15,-15 -8,-8 -18,-12 -28,-12 -10,0 -20,4 -28,12 0,0 0,0 0,0l-29 29c-10,10 -16,23 -18,38 -2,24 5,47 11,62 13,36 33,69 63,105 37,44 80,78 130,102 19,9 45,20 73,22 2,0 4,0 6,0 19,0 35,-7 47,-21 0,0 1,0 1,0 4,-5 9,-10 14,-15 4,-3 7,-7 11,-11 8,-8 13,-18 13,-28 0,-11 -5,-21 -13,-29l-46 -46zm30 88c0,0 0,0 0,0 -3,3 -7,6 -10,10 -6,5 -11,10 -16,16 -9,9 -18,14 -31,14 -2,0 -3,0 -4,0 -25,-2 -48,-12 -65,-20 -47,-23 -88,-55 -122,-96 -29,-34 -47,-65 -60,-99 -8,-21 -11,-37 -9,-52 1,-10 4,-18 11,-25l28 -28c5,-4 9,-6 13,-6 5,0 10,3 12,6 0,0 0,0 0,0 5,5 10,10 15,15 3,3 6,5 8,8l23 23c9,8 9,17 0,25 -3,3 -5,5 -7,8 -7,7 -14,13 -21,20 0,0 0,0 -1,0 -7,7 -5,14 -4,19 0,0 0,1 0,1 6,14 15,27 27,43l0 1c23,28 47,50 74,67 3,2 7,3 10,5 3,2 6,3 8,4 1,1 1,1 1,1 3,1 6,2 9,2 6,0 11,-4 12,-6l29 -28c2,-3 7,-6 12,-6 5,0 9,3 12,6 0,0 0,0 0,0l46 46c8,8 8,17 0,26z"/>
     <path class="fil0" d="M212 93c22,4 42,14 57,30 16,16 26,36 30,57 1,6 6,10 11,10 1,0 1,0 2,-1 6,-1 10,-6 9,-12 -4,-27 -17,-51 -36,-70 -19,-19 -43,-31 -69,-36 -6,-1 -12,3 -13,10 -1,6 3,11 9,12z"/>
     <path class="fil0" d="M392 173c-7,-43 -28,-82 -59,-114 -31,-31 -71,-51 -114,-59 -6,-1 -12,3 -13,9 -1,6 3,12 9,13 39,7 74,25 102,53 28,28 47,63 53,102 1,5 6,9 11,9 1,0 1,0 2,0 6,-1 10,-7 9,-13z"/>
    </g>
   </g>
   <g>
   </g>
   <g>
   </g>
   <g>
   </g>
   <g>
   </g>
   <g>
   </g>
   <g>
   </g>
   <g>
   </g>
   <g>
   </g>
   <g>
   </g>
   <g>
   </g>
   <g>
   </g>
   <g>
   </g>
   <g>
   </g>
   <g>
   </g>
   <g>
   </g>
  </g>
 </g>
</svg>
