<?xml version="1.0" encoding="UTF-8"?>
<!DOCTYPE svg PUBLIC "-//W3C//DTD SVG 1.1//EN" "http://www.w3.org/Graphics/SVG/1.1/DTD/svg11.dtd">
<!-- Creator: CorelDRAW X8 -->
<svg xmlns="http://www.w3.org/2000/svg" xml:space="preserve" width="14.7447mm" height="15.7062mm" version="1.1" style="shape-rendering:geometricPrecision; text-rendering:geometricPrecision; image-rendering:optimizeQuality; fill-rule:evenodd; clip-rule:evenodd"
viewBox="0 0 1577 1680"
 xmlns:xlink="http://www.w3.org/1999/xlink">
 <defs>
  <style type="text/css">
   <![CDATA[
    .fil0 {fill:#7A5980}
   ]]>
  </style>
 </defs>
 <g id="Layer_x0020_1">
  <metadata id="CorelCorpID_0Corel-Layer"/>
  <path class="fil0" d="M1032 1029c-66,0 -84,2 -150,-16 -67,-18 -128,-54 -179,-99 -10,-8 -19,-19 -29,-28 -46,-46 -84,-108 -105,-173 -24,-73 -30,-172 -11,-248 17,-71 48,-134 93,-189 9,-11 19,-20 28,-31 7,-9 49,-43 61,-52 60,-45 127,-68 202,-81 81,-13 161,-2 235,27 60,24 110,56 156,102 31,32 50,56 74,96 15,24 27,49 36,77 17,53 18,63 26,116 5,38 -1,94 -8,130 -7,32 -16,58 -27,87 -10,26 -25,50 -39,73 -15,26 -34,44 -51,65 -9,12 -44,42 -60,53 -22,17 -44,31 -71,44 -47,24 -110,47 -181,47zm-37 -1029l41 0c71,0 160,26 223,58l46 24c14,9 28,18 42,28 34,25 64,54 92,85 3,4 4,6 8,9 3,4 4,6 7,10l30 40c5,8 9,15 14,23 4,8 8,14 12,22 25,40 47,106 56,154 7,36 11,73 11,110l0 7c-1,147 -56,291 -157,392 -46,47 -95,85 -155,115 -51,25 -134,58 -209,58 -108,0 -145,4 -247,-32 -23,-9 -43,-18 -63,-28 -14,-7 -48,-30 -60,-31 -3,5 -4,7 -8,11 -28,28 -53,58 -79,87 -6,6 -4,5 -4,15 0,14 -3,39 -6,49 -8,24 -43,65 -62,85l-52 59c-4,4 -5,6 -8,10l-26 29c-3,4 -6,6 -9,10 -4,4 -5,6 -9,10l-215 237c-34,32 -51,34 -89,34l-16 0c-42,0 -103,-54 -103,-110l0 -16c0,-19 2,-37 12,-52l34 -42c4,-4 4,-5 8,-9 6,-7 12,-13 17,-20l43 -50c4,-4 5,-4 8,-9l174 -194c3,-4 6,-6 10,-10l25 -29c24,-25 47,-52 75,-73 39,-30 57,-7 89,-41l17 -19c4,-4 5,-6 9,-10l44 -49c3,-4 5,-5 8,-9 -3,-4 -5,-5 -7,-9 -33,-42 -62,-87 -82,-137 -39,-95 -43,-140 -43,-247 0,-48 5,-82 16,-119 11,-40 26,-86 47,-122 17,-29 33,-57 53,-83 5,-6 9,-12 14,-18 4,-4 5,-6 8,-10l24 -25c34,-34 72,-67 115,-90 47,-26 89,-46 142,-59 17,-5 38,-10 56,-12 41,-6 54,-7 79,-7z"/>
 </g>
</svg>
