<?xml version="1.0" encoding="UTF-8"?>
<!DOCTYPE svg PUBLIC "-//W3C//DTD SVG 1.1//EN" "http://www.w3.org/Graphics/SVG/1.1/DTD/svg11.dtd">
<!-- Creator: CorelDRAW X8 -->
<svg xmlns="http://www.w3.org/2000/svg" xml:space="preserve" width="23.6352mm" height="23.6352mm" version="1.1" style="shape-rendering:geometricPrecision; text-rendering:geometricPrecision; image-rendering:optimizeQuality; fill-rule:evenodd; clip-rule:evenodd"
viewBox="0 0 134 134"
 xmlns:xlink="http://www.w3.org/1999/xlink">
 <defs>
  <style type="text/css">
   <![CDATA[
    .fil1 {fill:#FEFEFE}
    .fil2 {fill:#B2B3B3}
    .fil0 {fill:#F6EAC0}
   ]]>
  </style>
 </defs>
 <g id="Layer_x0020_1">
  <metadata id="CorelCorpID_0Corel-Layer"/>
  <circle class="fil0" cx="67" cy="67" r="67"/>
  <circle class="fil1" cx="67" cy="67" r="64"/>
  <path class="fil2" d="M57 67c0,0 7,7 9,8l11 11c1,1 0,3 -2,3 -1,-1 -5,-5 -6,-6 -2,-1 -4,-3 -6,-5 -3,-3 -7,-6 -10,-9 -1,-2 -1,-2 0,-4l19 -17c1,0 2,-2 3,-2 2,-1 3,1 2,2 0,1 -2,2 -3,3l-17 16z"/>
 </g>
</svg>
