<?xml version="1.0" encoding="UTF-8"?>
<!DOCTYPE svg PUBLIC "-//W3C//DTD SVG 1.1//EN" "http://www.w3.org/Graphics/SVG/1.1/DTD/svg11.dtd">
<!-- Creator: CorelDRAW X8 -->
<svg xmlns="http://www.w3.org/2000/svg" xml:space="preserve" width="23.6352mm" height="23.6352mm" version="1.1" style="shape-rendering:geometricPrecision; text-rendering:geometricPrecision; image-rendering:optimizeQuality; fill-rule:evenodd; clip-rule:evenodd"
viewBox="0 0 156 156"
 xmlns:xlink="http://www.w3.org/1999/xlink">
 <defs>
  <style type="text/css">
   <![CDATA[
    .fil1 {fill:#FEFEFE}
    .fil2 {fill:#B2B3B3}
    .fil0 {fill:#F6EAC0}
   ]]>
  </style>
 </defs>
 <g id="Layer_x0020_1">
  <metadata id="CorelCorpID_0Corel-Layer"/>
  <circle class="fil0" cx="78" cy="78" r="78"/>
  <circle class="fil1" cx="78" cy="78" r="74"/>
  <path class="fil2" d="M90 78c0,0 -9,8 -10,9l-14 13c-1,1 1,4 3,3 1,0 6,-5 7,-6 2,-2 4,-4 7,-6 4,-4 7,-7 11,-11 2,-1 2,-2 0,-4l-22 -20c0,-1 -2,-3 -3,-3 -2,0 -4,1 -3,3 1,1 3,3 4,3l20 19z"/>
 </g>
</svg>
