<?xml version="1.0" encoding="UTF-8"?>
<!DOCTYPE svg PUBLIC "-//W3C//DTD SVG 1.1//EN" "http://www.w3.org/Graphics/SVG/1.1/DTD/svg11.dtd">
<!-- Creator: CorelDRAW X8 -->
<svg xmlns="http://www.w3.org/2000/svg" xml:space="preserve" width="32.3032mm" height="32.3031mm" version="1.1" style="shape-rendering:geometricPrecision; text-rendering:geometricPrecision; image-rendering:optimizeQuality; fill-rule:evenodd; clip-rule:evenodd"
viewBox="0 0 189 189"
 xmlns:xlink="http://www.w3.org/1999/xlink">
 <defs>
  <style type="text/css">
   <![CDATA[
    .fil1 {fill:none}
    .fil0 {fill:#B2B3B3}
   ]]>
  </style>
   <clipPath id="id0">
    <path d="M95 0c52,0 94,42 94,95 0,52 -42,94 -94,94 -53,0 -95,-42 -95,-94 0,-53 42,-95 95,-95z"/>
   </clipPath>
 </defs>
 <g id="Layer_x0020_1">
  <metadata id="CorelCorpID_0Corel-Layer"/>
  <g>
  </g>
  <g style="clip-path:url(#id0)">
   <g>
    <path class="fil0" d="M105 104c-3,-1 -7,-1 -11,-1l-11 0 0 23 10 0c4,0 9,1 12,-2 3,-2 5,-6 5,-10 0,-3 -2,-8 -5,-10zm-4 -20c2,-2 3,-5 3,-8 0,-4 -1,-7 -4,-9 -3,-2 -9,-1 -12,-1l-5 0 0 20 6 0c4,0 8,1 12,-2zm56 -86l-125 0c-19,0 -34,15 -34,34l0 125c0,19 15,34 34,34l125 0c19,0 34,-15 34,-34l0 -125c0,-19 -15,-34 -34,-34zm-57 146l-40 0 0 -95 43 0c13,0 24,8 24,22 0,10 -6,18 -13,20l0 0c11,3 19,9 19,24 0,14 -9,29 -33,29z"/>
   </g>
  </g>
  <path class="fil1" d="M95 0c52,0 94,42 94,95 0,52 -42,94 -94,94 -53,0 -95,-42 -95,-94 0,-53 42,-95 95,-95z"/>
 </g>
</svg>
